<?xml version="1.0" encoding="UTF-8" standalone="no"?>
<svg width="64px" height="37px" viewBox="0 0 64 37" version="1.1" xmlns="http://www.w3.org/2000/svg" xmlns:xlink="http://www.w3.org/1999/xlink" xmlns:sketch="http://www.bohemiancoding.com/sketch/ns">
    <!-- Generator: Sketch 3.3.2 (12043) - http://www.bohemiancoding.com/sketch -->
    <title>Shape</title>
    <desc>Created with Sketch.</desc>
    <defs></defs>
    <g id="Page-1" stroke="none" stroke-width="1" fill="none" fill-rule="evenodd" sketch:type="MSPage">
        <g id="cowboy5" sketch:type="MSLayerGroup" fill="#888888">
            <path d="M53.29034,21.1818119 C52.2384047,20.9735406 51.1243186,21.4800035 49.9553548,21.048915 C50.0796563,20.4690613 50.1477577,19.868711 50.1477577,19.2511701 L50.1477577,9.25018152 C50.1477577,4.51614221 46.3096155,0.678 41.5755762,0.678 C41.5755762,0.678 37.0035257,3.60702153 31.8602168,3.67776765 C26.7169079,3.74983612 22.4304865,0.678 22.4304865,0.678 C17.695786,0.678 13.858305,4.51614221 13.858305,9.25018152 L13.858305,19.2518313 C13.858305,19.8396192 13.9184723,20.4141834 14.0315338,20.9708959 C12.7078541,21.4740528 11.4535982,21.0297408 10.2819896,21.2717322 C3.9591379,22.5762377 0,17.2140786 0,21.1586706 C0,25.1039238 14.3270807,36.0180002 32.0023702,36.0180002 C49.6776597,36.0180002 64.0060628,26.1399908 64.0060628,21.1586706 C64.0060628,16.179334 59.8657619,22.4909457 53.29034,21.1818119 L53.29034,21.1818119 Z M31.2869749,27.5549131 C22.1640315,27.5549131 14.7687481,25.2222748 14.7687481,22.3428416 C14.7687481,21.6942253 15.1482646,21.0720562 15.8358904,20.4988143 C18.1969595,22.4678044 24.2229419,23.8675197 31.2869749,23.8675197 C38.3510078,23.8675197 44.5912122,22.4678044 46.9522812,20.4988143 C47.639907,21.0720562 47.8052017,21.6942253 47.8052017,22.3428416 C47.8058629,25.2216136 40.4105794,27.5549131 31.2869749,27.5549131 L31.2869749,27.5549131 Z" id="Shape" sketch:type="MSShapeGroup"></path>
        </g>
    </g>
</svg>