<?xml version="1.0" encoding="UTF-8" standalone="no"?>
<svg width="66px" height="66px" viewBox="0 0 66 66" version="1.1" xmlns="http://www.w3.org/2000/svg" xmlns:xlink="http://www.w3.org/1999/xlink" xmlns:sketch="http://www.bohemiancoding.com/sketch/ns">
    <!-- Generator: Sketch 3.3.2 (12043) - http://www.bohemiancoding.com/sketch -->
    <title>country-grey</title>
    <desc>Created with Sketch.</desc>
    <defs></defs>
    <g id="Page-1" stroke="none" stroke-width="1" fill="none" fill-rule="evenodd" sketch:type="MSPage">
        <g id="country-grey" sketch:type="MSLayerGroup" transform="translate(1.000000, 1.000000)">
            <path d="M57.1789248,26.3448115 C52.5333034,23.9367394 48.4105659,26.7599963 44.9514885,30.9118448 C44.6096029,29.3341424 44.2274955,27.8671559 43.9057209,26.6769594 C41.6935203,18.6223734 38.1340894,11.1490461 34.2727938,4.45073061 C34.0314628,4.03554576 33.6895772,3.98018778 33.4080244,4.17394071 C33.0661389,3.48196596 32.4628114,3.1221391 31.8391719,3.75875586 C25.1422373,10.6231453 20.8183905,21.1134824 19.3704047,32.3511523 C16.2532128,27.8394769 15.509109,22.6081479 9.59649999,23.4385176 C5.9765353,23.9367394 3.44256002,30.275228 3.10067446,34.6761874 C1.65268859,52.8336047 16.1325474,59.4488832 26.6907777,60.9989067 C40.2254235,62.9917939 54.9466132,58.3970816 60.4771148,39.5753686 C61.7644145,35.2297672 60.6784251,28.1716248 57.1789248,26.3448115 L57.1789248,26.3448115 L57.1789248,26.3448115 Z M33.1063607,6.80344473 C33.1666934,6.74808675 33.1866032,6.69272877 33.2270262,6.60969181 C35.4794486,11.9240578 37.7922039,17.1830659 39.8234063,22.6635059 C41.532834,27.2858971 42.3976034,31.2163137 42.5987125,35.4511991 C35.5598923,36.1985318 29.0640668,35.5342361 22.3269103,32.4341892 C24.016026,22.5804689 26.3893151,13.6678342 33.1063607,6.80344473 L33.1063607,6.80344473 L33.1063607,6.80344473 Z M44.9919114,55.213721 C39.3206334,58.1753729 32.6639206,57.953941 26.6909788,57.4280402 C20.2755969,56.8744604 13.7596605,54.1065614 8.93304091,48.1835344 C6.76106209,45.2218825 5.59462903,41.5682559 5.47396354,37.2503335 C5.57451811,28.3100198 9.25481555,26.5662434 16.5148558,32.0466834 C17.3997361,33.8178619 17.9829526,34.3714417 19.068942,35.1744092 C18.847722,37.6931973 18.7672783,40.2119854 18.847722,42.7581756 C18.7672783,43.6718591 19.7124913,44.55731 20.2755969,44.0870439 C25.7859876,48.5707635 38.0737567,51.8922422 42.9405981,45.2772405 C43.2221509,45.3602775 43.5439255,45.3049195 43.8254784,45.0004506 C45.8767917,42.8138104 46.0779008,38.9664308 45.6555716,35.1464534 L46.1382336,34.4824345 C51.005075,26.5662434 54.8864816,27.9225139 57.8025642,38.578925 C56.6562421,46.8826219 50.1401045,52.5291358 44.9919114,55.213721 L44.9919114,55.213721 L44.9919114,55.213721 Z" id="Shape" fill="#888888" sketch:type="MSShapeGroup"></path>
        </g>
    </g>
</svg>
