<?xml version="1.0" encoding="UTF-8" standalone="no"?>
<svg width="66px" height="66px" viewBox="0 0 66 66" version="1.1" xmlns="http://www.w3.org/2000/svg" xmlns:xlink="http://www.w3.org/1999/xlink" xmlns:sketch="http://www.bohemiancoding.com/sketch/ns">
    <!-- Generator: Sketch 3.3.2 (12043) - http://www.bohemiancoding.com/sketch -->
    <title>folk-grey</title>
    <desc>Created with Sketch.</desc>
    <defs></defs>
    <g id="Page-1" stroke="none" stroke-width="1" fill="none" fill-rule="evenodd" sketch:type="MSPage">
        <g id="folk-grey" sketch:type="MSLayerGroup" transform="translate(1.000000, 1.000000)">
            <path d="M20.2757027,62.9989911 C15.1272543,62.9989911 10.286877,60.9940992 6.64638971,57.353612 C-0.868796583,49.8384257 -0.868796583,37.6101722 6.64638971,30.0949859 C13.415532,23.3258436 24.1031059,22.5665179 31.7365319,28.2303619 L50.8570266,9.10986724 C50.5259554,8.62492246 50.347786,8.05218875 50.347786,7.45191976 C50.347786,6.66441091 50.6542374,5.92419794 51.2110978,5.36766145 L51.6364368,4.94232244 L50.5343779,3.84026357 C50.2813774,3.58726299 50.2813774,3.17714937 50.5343779,2.92414879 C50.7870546,2.67114821 51.1978161,2.67114821 51.4504927,2.92414879 L52.5525516,4.02620766 L53.3708352,3.20792409 L52.2687763,2.10586522 C52.0157757,1.85286464 52.0157757,1.44275102 52.2687763,1.18975044 C52.5214529,0.936749855 52.9322144,0.936749855 53.1848911,1.18975044 L54.2869499,2.29180931 L54.4077812,2.17097804 C55.6873616,0.891721582 57.7693523,0.891397638 59.0489327,2.17097804 L61.8290236,4.95139289 C63.108604,6.23097329 63.108604,8.312964 61.8290236,9.5925444 L61.7081924,9.71337567 L62.8102512,10.8157585 C63.0632518,11.0687591 63.0632518,11.4788727 62.8102512,11.7318733 C62.5572507,11.9848738 62.1468131,11.9848738 61.8941365,11.7318733 L60.7920776,10.6298144 L59.973794,11.448098 L61.0758529,12.5501568 C61.3288535,12.8031574 61.3288535,13.213271 61.0758529,13.4662716 C60.8228523,13.7192722 60.4124147,13.7192722 60.1597381,13.4662716 L59.0576792,12.3642127 L58.6323402,12.7895518 C57.6161266,13.8054414 56.0368976,13.9233572 54.8904584,13.143299 L35.7696398,32.2631458 C41.4334838,39.8968958 40.6741581,50.5841457 33.9050158,57.353288 L33.4469584,56.8952306 L33.9050158,57.353288 C30.2645285,60.9937753 25.4241512,62.9989911 20.2757027,62.9989911 L20.2757027,62.9989911 L20.2757027,62.9989911 Z M20.2828295,25.7437646 C15.6581992,25.7437646 11.0526815,27.5209237 7.56250449,31.0111007 C0.552671474,38.0209337 0.552671474,49.4273402 7.56250449,56.4371732 C10.9584137,59.8327585 15.4732269,61.7028896 20.2757027,61.7028896 C25.0781786,61.7028896 29.5929918,59.8327585 32.988901,56.4368493 C39.2572253,50.1682011 40.0013256,40.2989108 34.8428348,33.1899508 L24.7124453,43.3203403 C24.7244313,43.4538054 24.7302623,43.5882423 24.7302623,43.723651 C24.7302623,44.9131749 24.2670218,46.0317549 23.4257381,46.8730386 C22.4555246,47.8432521 21.1445216,48.2698868 19.8749835,48.1578021 L16.6391028,51.3936828 L17.6834996,52.4380795 C17.9365002,52.6910801 17.9365002,53.1011937 17.6834996,53.3541943 C17.430823,53.6071949 17.0200614,53.6071949 16.7673848,53.3541943 L15.2733532,51.8604867 C15.2704377,51.8575712 15.2675222,51.8546557 15.2646067,51.8517402 C15.2616912,51.8488247 15.2587757,51.8459092 15.2558602,51.8429937 L12.1563601,48.7434936 C12.1534446,48.7405781 12.1505291,48.7376626 12.1476136,48.7347471 C12.1446981,48.7318316 12.1417826,48.7289161 12.1388671,48.7260006 L10.6451595,47.231969 C10.3921589,46.9789684 10.3921589,46.5688548 10.6451595,46.3158542 C10.8978361,46.0628536 11.3085976,46.0628536 11.5612742,46.3158542 L12.605995,47.360251 L15.839608,44.1266379 C15.8276221,43.9931728 15.8217911,43.8587359 15.8217911,43.7233271 C15.8217911,42.5334793 16.2850316,41.4148993 17.1263152,40.5736156 C17.9675988,39.732332 19.0861789,39.2690915 20.2760267,39.2690915 C20.4114354,39.2690915 20.5458724,39.2749225 20.6793375,39.2869084 L26.9233659,33.0425561 C26.9249856,33.0409363 26.9269293,33.0389927 26.928873,33.037373 L30.809727,29.156195 C27.6587197,26.8707672 23.9647816,25.7437646 20.2828295,25.7437646 L20.2828295,25.7437646 L20.2828295,25.7437646 Z M15.0802823,49.8358341 L15.7223402,50.4778919 L18.4243605,47.7755477 C18.1428528,47.6472657 17.8720352,47.488209 17.617091,47.2983776 L15.0802823,49.8358341 L15.0802823,49.8358341 Z M13.5217858,48.2773376 L14.1638436,48.9193954 L16.7006523,46.3825867 C16.5117927,46.130234 16.3520881,45.8600644 16.2221864,45.5766131 L13.5217858,48.2773376 L13.5217858,48.2773376 Z M18.5477833,46.3683332 C18.8244318,46.5494181 19.1234325,46.6822353 19.4331233,46.7674327 L23.3207802,42.8797759 C23.234287,42.5661977 23.0998501,42.2684928 22.9207088,41.9957316 L18.5477833,46.3683332 L18.5477833,46.3683332 Z M23.2550194,44.7780901 L21.3327333,46.7003762 C21.7626076,46.5484463 22.1659183,46.3009527 22.5092994,45.9575717 C22.8478213,45.6187258 23.100174,45.2167108 23.2550194,44.7780901 L23.2550194,44.7780901 L23.2550194,44.7780901 Z M17.2306253,44.5684981 C17.3171185,44.8820762 17.4518793,45.1797812 17.6306967,45.4525423 L22.0039461,41.0792929 C21.731185,40.9001516 21.43348,40.7653907 21.1199019,40.6792215 L17.2306253,44.5684981 L17.2306253,44.5684981 Z M19.2215876,40.7449822 C18.7829669,40.8998277 18.3809519,41.1521803 18.0421061,41.4907022 C17.7032602,41.8292242 17.4512315,42.2315631 17.296386,42.6701838 L19.2215876,40.7449822 L19.2215876,40.7449822 Z M23.8504293,41.0653632 C24.0392889,41.3180399 24.1993174,41.5878856 24.3288952,41.8713369 L29.5868368,36.6130713 L28.944779,35.9710135 L23.8504293,41.0653632 L23.8504293,41.0653632 Z M22.1283408,39.6707826 C22.4117922,39.8003603 22.6816378,39.9607128 22.9343145,40.1492485 L28.0286642,35.0548987 L27.3866064,34.4128409 L22.1283408,39.6707826 L22.1283408,39.6707826 Z M29.8612177,35.0548987 L30.5032755,35.6969565 L53.9374139,12.2628181 L53.2953561,11.6207603 L29.8612177,35.0548987 L29.8612177,35.0548987 Z M28.3027212,33.4964022 L28.944779,34.13846 L52.3792413,10.7039977 L51.7371835,10.0619398 L28.3027212,33.4964022 L28.3027212,33.4964022 Z M53.8020052,10.294208 L55.3802623,11.8724651 C55.6922208,12.1844236 56.1071936,12.3564381 56.5484058,12.3564381 C56.9896181,12.3564381 57.4045909,12.1844236 57.7165494,11.8724651 L60.9135567,8.67545779 C61.6877839,7.90090671 61.6877839,6.64108691 60.9135567,5.86685978 L58.1334658,3.08676888 C57.3592387,2.31254175 56.099095,2.31286569 55.3245439,3.08676888 L54.7495426,3.6617702 C54.7482468,3.66306598 54.746951,3.66436176 54.7456552,3.66565754 C54.7443594,3.66695331 54.7430637,3.66824909 54.7417679,3.66986881 L53.0180597,5.393577 C53.0157921,5.39584461 53.0135245,5.39843617 53.0112569,5.40037984 C53.0089893,5.40264745 53.0067217,5.40491506 53.004454,5.40718267 L52.1278605,6.28345229 C51.483859,6.92745377 51.483859,7.97573787 52.1278605,8.61973935 L52.1874662,8.67902118 C52.1903817,8.68193668 52.1932972,8.68485218 52.1958888,8.68744373 L53.7482304,10.2397853 C53.7501741,10.241729 53.7524417,10.2439966 53.7543853,10.2459403 C53.756329,10.2478839 53.7585966,10.2501515 53.7605403,10.2520952 L53.8020052,10.294208 L53.8020052,10.294208 Z M20.2757027,60.3802246 C11.0922027,60.3802246 3.62074895,52.9090947 3.62074895,43.7252708 C3.62074895,34.5414468 11.0922027,27.070317 20.2757027,27.070317 C20.6333374,27.070317 20.9235915,27.3605712 20.9235915,27.7182058 C20.9235915,28.0758404 20.6333374,28.3660946 20.2757027,28.3660946 C11.8065002,28.3660946 4.91652658,35.2563921 4.91652658,43.7252708 C4.91652658,52.1941494 11.8068241,59.0844469 20.2757027,59.0844469 C20.6333374,59.0844469 20.9235915,59.3747011 20.9235915,59.7323357 C20.9235915,60.0899704 20.6336613,60.3802246 20.2757027,60.3802246 L20.2757027,60.3802246 L20.2757027,60.3802246 Z" id="Shape" fill="#888888" sketch:type="MSShapeGroup"></path>
        </g>
    </g>
</svg>
