<?xml version="1.0" encoding="UTF-8" standalone="no"?>
<svg width="66px" height="66px" viewBox="0 0 66 66" version="1.1" xmlns="http://www.w3.org/2000/svg" xmlns:xlink="http://www.w3.org/1999/xlink" xmlns:sketch="http://www.bohemiancoding.com/sketch/ns">
    <!-- Generator: Sketch 3.3.2 (12043) - http://www.bohemiancoding.com/sketch -->
    <title>jazz-grey</title>
    <desc>Created with Sketch.</desc>
    <defs></defs>
    <g id="Page-1" stroke="none" stroke-width="1" fill="none" fill-rule="evenodd" sketch:type="MSPage">
        <g id="jazz-grey" sketch:type="MSLayerGroup" transform="translate(1.000000, 1.000000)">
            <path d="M53.4179086,63 C52.1696308,63 50.9234749,62.7396137 49.7473414,62.2200537 C47.5248127,61.238831 45.8176003,59.4506836 44.9400471,57.185414 L28.110728,13.742133 C26.9682416,10.7933116 24.4304607,8.68506192 21.3224975,8.10275457 L15.3123945,6.97663702 L5.22068373,6.0035987 C4.41739665,5.92599814 3.8250861,5.23395874 3.87267707,4.42794351 C3.89632099,4.02569372 4.07668168,3.6576973 4.37980888,3.39215787 C4.68293608,3.12692157 5.06942326,2.99597062 5.47288556,3.02598021 L6.8351392,3.1251028 C7.29619568,3.15874992 7.76028342,3.03234588 8.14070806,2.7695346 L8.41776632,2.57735195 C9.12102143,2.09143905 9.9709901,1.90350019 10.8124712,2.04687935 L15.7088849,2.88351043 C15.7119162,2.88411668 15.7146443,2.88472293 15.7173724,2.88532919 L15.7173724,2.88532919 C15.7182818,2.88532919 15.7188881,2.88563232 15.7197975,2.88563232 L15.7204037,2.88563232 C15.7246475,2.8865417 15.7279819,2.88714795 15.7319225,2.88805733 L24.3155755,4.64407321 C27.5884399,5.31307494 30.3408349,7.54015048 31.6785352,10.6008258 L33.322394,14.3041308 C33.5212454,14.0783011 33.7758723,13.8955154 34.075362,13.7797208 C34.5600624,13.5923882 35.0884131,13.6042101 35.5631103,13.8139742 C36.0384137,14.0237382 36.4033789,14.4059816 36.5913177,14.8903788 C36.978108,15.8903955 36.4800701,17.0186349 35.4803565,17.4063346 C35.2430079,17.4984853 34.9859561,17.5363762 34.7573982,17.5375887 L36.2111962,20.8128781 C36.4070164,20.5970515 36.6549744,20.4227534 36.9447641,20.3102932 C37.9450838,19.9228966 39.0730201,20.4215409 39.4607198,21.4212544 C39.8478133,22.4209679 39.3497753,23.5495105 38.3497586,23.936907 C38.121807,24.025117 37.8871865,24.0675548 37.6562036,24.0684642 L39.0963609,27.3128347 C39.2864217,27.1148926 39.5216484,26.9542352 39.7941597,26.8487469 C40.278557,26.6614143 40.8069077,26.6732363 41.2822112,26.8833034 C41.7572115,27.0930674 42.1221766,27.4753108 42.3101155,27.9597081 C42.4980544,28.4441054 42.485323,28.9724561 42.275559,29.4474564 C42.065795,29.9224567 41.6835516,30.2874219 41.1991543,30.4753607 C40.9884809,30.556902 40.7720481,30.5990366 40.5580403,30.6057054 L41.9818287,33.8133975 C42.168252,33.6300055 42.392263,33.4845045 42.6435554,33.3872006 C43.1279527,33.199868 43.6566065,33.21169 44.1313037,33.421454 C44.6066072,33.631218 44.9715723,34.0137646 45.1592081,34.498465 C45.3468438,34.9825591 45.3344156,35.5109098 45.1249547,35.9859101 C44.9151907,36.4609104 44.5329473,36.8258756 44.04855,37.0138145 C43.8572767,37.0877775 43.6590315,37.1308216 43.459877,37.1426435 L50.2890297,52.5281677 C50.4936405,52.9968024 51.0244163,53.217479 51.4966885,53.0337839 C51.731612,52.9428457 51.9177321,52.7655163 52.0195829,52.5348365 C52.1214336,52.3041567 52.127193,52.0477111 52.0362549,51.8124844 L49.3926826,44.988788 C48.1935113,41.8929499 47.7051734,38.5079284 47.9801098,35.199295 L48.4445007,29.6075076 L47.463581,29.3395431 C47.1404474,29.2513331 46.9500836,28.9178932 47.0382936,28.5950627 C47.1268067,28.2722322 47.4605498,28.0818684 47.782774,28.1697753 L60.0100159,31.507812 C60.0136534,31.5090245 60.0172909,31.5099339 60.0209285,31.5111464 L61.8615168,32.0134282 C62.1846504,32.1016382 62.3750143,32.4350781 62.2868043,32.7579086 C62.1985943,33.080739 61.8657606,33.271406 61.5423239,33.183196 L60.3016242,32.8446029 L59.171566,37.8422611 C58.6368497,40.2066533 58.8169072,42.6507679 59.6926417,44.9108843 L61.902439,50.615132 C62.7799922,52.8807047 62.7227012,55.3521007 61.7414785,57.5743262 C60.7602557,59.7968549 58.9721083,61.5040673 56.7068388,62.3816205 C55.6401342,62.7938735 54.5279605,63 53.4179086,63 L53.4179086,63 L53.4179086,63 Z M16.0414154,5.87961968 L21.5455991,6.91085841 C25.0691497,7.57106946 27.94613,9.96092431 29.2413925,13.3038111 L46.0707116,56.746789 C46.8312577,58.710447 48.3108216,60.2600332 50.2368918,61.1106082 C52.162962,61.9614862 54.3048588,62.0111991 56.2682137,61.2500467 C58.2318717,60.4895005 59.781458,59.0099367 60.6320329,57.0838664 C61.4826078,55.1577962 61.5323207,53.0155963 60.7714714,51.0525445 L58.5616741,45.3482968 C57.5989421,42.8626538 57.4006969,40.1742187 57.9884606,37.5739935 L59.1306439,32.5241975 L52.4366859,30.6969467 L51.9371323,34.8767677 C51.6628022,37.1708344 51.9095477,39.5406828 52.6513,41.7292612 L55.5655649,50.3283736 C55.6728719,50.6454447 55.5031207,50.9897972 55.1857465,51.0971042 C54.8701911,51.2035019 54.5249292,51.03466 54.4170159,50.7172858 L51.502751,42.1181734 C50.7034046,39.7592375 50.4372589,37.2053909 50.7328079,34.7327823 L51.2544898,30.3741163 L49.6339718,29.9315505 L49.1880717,35.299327 C48.9282917,38.4254778 49.3896513,41.6246823 50.5230439,44.5501629 L53.1666162,51.3738593 C53.3748646,51.9110007 53.3612239,52.4969456 53.1284222,53.0240838 C52.8956205,53.5509189 52.4715455,53.9558968 51.9347073,54.1641452 C50.854665,54.583067 49.6430656,54.0789665 49.1789779,53.0165056 L41.7878273,36.3648191 C41.6832485,36.2247744 41.5974635,36.0695732 41.5325942,35.9025501 C41.4910658,35.7952431 41.4595406,35.6861173 41.4377154,35.5760822 L30.5687865,11.08977 C29.3874998,8.38648163 26.9597541,6.42221737 24.0730737,5.83172558 L16.1626663,4.21393571 L16.0414154,5.87961968 L16.0414154,5.87961968 Z M42.8263411,35.7161269 C42.8896947,35.7797836 42.9651734,35.8319215 43.050049,35.8695093 C43.2285909,35.9483224 43.4274424,35.9528693 43.6099249,35.8822406 C43.7924075,35.8119151 43.9360898,35.6742954 44.015206,35.4957534 C44.0940191,35.3166053 44.098566,35.118057 44.0279374,34.9355744 C43.9576118,34.7527887 43.8199921,34.6091064 43.6414502,34.5299902 C43.4619989,34.450874 43.2634506,34.4460239 43.0812711,34.5172588 C42.8987885,34.5875843 42.7551062,34.7252041 42.67599,34.903746 C42.6290053,35.011053 42.6080895,35.1247257 42.6144552,35.2383984 L42.8263411,35.7161269 L42.8263411,35.7161269 Z M40.4965055,27.9287891 C40.4073861,27.9287891 40.3179635,27.9454611 40.2321785,27.9788051 C39.8559977,28.1243062 39.668362,28.5495936 39.8141661,28.9257745 C39.8844916,29.1082571 40.0221114,29.2519394 40.2006533,29.3310556 C40.3794984,29.4098686 40.5783498,29.4144155 40.7608324,29.3437869 C41.1373164,29.1982858 41.3249521,28.7733015 41.1791479,28.3971207 C41.1088224,28.2146381 40.9708995,28.0709558 40.7923576,27.9918396 C40.6974788,27.950008 40.5971437,27.9287891 40.4965055,27.9287891 L40.4965055,27.9287891 L40.4965055,27.9287891 Z M37.6471098,21.3906385 C37.5579904,21.3906385 37.4685679,21.4073105 37.3827829,21.4406545 C37.006602,21.5861556 36.8189663,22.011443 36.9647704,22.3876239 C37.035096,22.5701065 37.1727157,22.7137888 37.3512576,22.792905 C37.5304058,22.871718 37.728651,22.8762649 37.9114367,22.8056363 C38.2879207,22.6601353 38.4755564,22.2351509 38.3297522,21.8589701 C38.2594267,21.6764875 38.1215038,21.5328052 37.9429619,21.453689 C37.8483862,21.4115543 37.747748,21.3906385 37.6471098,21.3906385 L37.6471098,21.3906385 L37.6471098,21.3906385 Z M34.7783139,14.8603693 C34.6888914,14.8603693 34.5994689,14.8770412 34.5136839,14.9103852 C34.3312013,14.9807108 34.187519,15.1183305 34.1084028,15.2968724 C34.0295898,15.4757175 34.0250429,15.6745689 34.0956715,15.8570515 C34.165997,16.0395341 34.3039199,16.1832164 34.4824618,16.2623326 C34.6610037,16.3417519 34.8592489,16.3462988 35.0423377,16.275367 C35.4185186,16.129866 35.6061543,15.7045785 35.4606533,15.3280945 C35.3903278,15.1459151 35.252708,15.0022328 35.073863,14.9231166 C34.9789842,14.881285 34.8786491,14.8603693 34.7783139,14.8603693 L34.7783139,14.8603693 L34.7783139,14.8603693 Z M5.36345665,4.23454836 C5.27251849,4.23454836 5.2091649,4.27759242 5.17854905,4.30426762 C5.14550819,4.33336783 5.0888234,4.39732767 5.08276086,4.49948153 C5.07397017,4.65134826 5.18582411,4.78199608 5.33738771,4.79624306 L14.8380004,5.71229346 L14.9637982,3.98628718 L10.6081635,3.24241303 C10.0810253,3.15208113 9.54812765,3.27060386 9.10798696,3.57464044 L8.83062557,3.76651996 C8.22315866,4.18665426 7.48231578,4.38732447 6.74692919,4.33488346 L5.38467555,4.23545774 C5.3774005,4.23485149 5.37012544,4.23454836 5.36345665,4.23454836 L5.36345665,4.23454836 L5.36345665,4.23454836 Z" id="Shape" fill="#888888" sketch:type="MSShapeGroup"></path>
        </g>
    </g>
</svg>
