<?xml version="1.0" encoding="UTF-8" standalone="no"?>
<svg width="63px" height="61px" viewBox="0 0 63 61" version="1.1" xmlns="http://www.w3.org/2000/svg" xmlns:xlink="http://www.w3.org/1999/xlink" xmlns:sketch="http://www.bohemiancoding.com/sketch/ns">
    <!-- Generator: Sketch 3.3.2 (12043) - http://www.bohemiancoding.com/sketch -->
    <title>latin-grey</title>
    <desc>Created with Sketch.</desc>
    <defs></defs>
    <g id="Page-1" stroke="none" stroke-width="1" fill="none" fill-rule="evenodd" sketch:type="MSPage">
        <g id="latin-grey" sketch:type="MSLayerGroup" transform="translate(-1.000000, -1.000000)" fill="#888888">
            <g id="Page-1" sketch:type="MSShapeGroup">
                <g id="latin-grey">
                    <path d="M61.2776948,9.0218926 C58.8052543,5.10503644 54.9791288,2.40058253 50.504106,1.4064159 C46.1555473,0.44063114 41.671841,1.20934642 37.8780814,3.57145425 C34.6838019,5.56026854 32.2576209,8.50236034 30.899831,11.9877161 C27.7207081,8.3958883 23.1277472,6.19509203 18.152079,6.19509203 C16.6400378,6.19509203 15.1268916,6.40066003 13.6546369,6.80618381 C9.23313634,8.02355687 5.5431056,10.9169024 3.26438689,14.9530586 C0.985668194,18.9892147 0.390924662,23.6850485 1.58972679,28.1754746 C3.61188637,35.7497415 10.4145714,41.0398304 18.1326594,41.0398304 C18.4310574,41.0398304 18.7294554,41.029568 19.0276955,41.0135331 L22.9730223,57.8859838 C22.9758642,57.8983307 22.9790219,57.9105173 22.9821794,57.9228642 C23.2734728,59.0142026 23.9657878,59.9249875 24.9315552,60.487333 C25.5711374,60.8598248 26.2798721,61.0499992 26.9979219,61.0499992 C27.3640515,61.0499992 27.7325494,61.0004513 28.0953634,60.9005535 C30.3129816,60.2897825 31.6281432,57.9602256 31.0270843,55.7079571 C31.0237688,55.6956102 31.0202954,55.6834237 31.0166641,55.6713975 L26.0310493,39.0888586 C28.9368774,37.567944 31.3553222,35.23053 33.0200356,32.2818638 C33.4270568,31.5609327 33.7792928,30.8186751 34.0783223,30.0607032 C35.6565162,31.8503635 37.5716314,33.2792375 39.7136238,34.2695557 L35.5406304,51.0833185 C35.5374728,51.0956654 35.5346309,51.107852 35.5321048,51.1203592 C35.0412479,53.4000474 36.4680325,55.660654 38.7129643,56.1596616 C39.011678,56.2260462 39.3097603,56.2577954 39.6038954,56.2577954 C41.5194844,56.2577954 43.2494034,54.9054081 43.6748967,52.9289407 C43.6775808,52.9165938 43.6801069,52.9042469 43.6823173,52.8917397 L46.801129,35.8457908 C46.825285,35.8459512 46.849441,35.8467529 46.8734391,35.8467529 C50.1172939,35.8465926 53.2991007,34.9069448 56.0955163,33.0861767 C59.952113,30.5752646 62.61496,26.6891955 63.5936738,22.1440902 C64.5725456,17.5989849 63.7499776,12.9389091 61.2776948,9.0218926 L61.2776948,9.0218926 L61.2776948,9.0218926 Z M49.9979347,3.75617682 C53.855163,4.61292396 57.1528556,6.94408434 59.2837963,10.3200818 C59.919905,11.3278781 60.4282868,12.3929192 60.8073628,13.4951613 C57.1285417,14.2661215 52.5336862,14.1456991 47.9783011,13.133894 C43.357395,12.1073368 39.2082418,10.3043675 36.1628455,8.01842569 C39.6089477,4.36710824 44.7821271,2.59813306 49.9979347,3.75617682 L49.9979347,3.75617682 L49.9979347,3.75617682 Z M14.2743259,9.1275629 C15.5446488,8.77768036 16.8492322,8.60033386 18.152079,8.60033386 C22.0129385,8.60033386 25.6061873,10.1388869 28.2840331,12.7047989 C25.3718896,15.1105217 21.2423139,17.1546566 16.7475558,18.3920733 C12.1860135,19.648251 7.68999239,19.9957282 3.95117595,19.3987472 C4.27641398,18.2782252 4.73237876,17.18833 5.31891239,16.1492655 C7.2829712,12.6706444 10.4633571,10.1768897 14.2743259,9.1275629 L14.2743259,9.1275629 L14.2743259,9.1275629 Z M3.46679232,21.7568463 C4.80484685,21.9768458 6.22657912,22.0881283 7.70878042,22.0881283 C10.7581238,22.0881283 14.0556585,21.6253598 17.367087,20.7136127 C22.2927065,19.3573771 26.6780518,17.1665225 29.8716999,14.4899693 C31.0187166,16.0075166 31.8946489,17.7614189 32.4091881,19.6888194 C32.8875722,21.4805642 33.0339294,23.3103118 32.8589955,25.1039808 C29.4545743,27.6257967 24.95729,29.7359955 20.1305051,31.0651322 C15.3141403,32.3917032 10.3841,32.8791656 6.19531838,32.4516739 C5.15471456,31.0029166 4.35709196,29.3500344 3.87555021,27.5457823 C3.36369502,25.629446 3.23170522,23.6694946 3.46679232,21.7568463 L3.46679232,21.7568463 L3.46679232,21.7568463 Z M28.7455238,56.353043 C28.9946624,57.3205916 28.4275484,58.3166824 27.4753587,58.5790141 C27.0114998,58.7066523 26.5266425,58.6433143 26.1096747,58.4005452 C25.6974434,58.1603417 25.4006242,57.7732581 25.2722657,57.3092068 L21.3929338,40.7188108 C21.8078492,40.6370325 22.220712,40.5414643 22.6301015,40.4285783 C23.0409118,40.3155319 23.445249,40.1878937 23.8427972,40.0461448 L28.7455238,56.353043 L28.7455238,56.353043 Z M22.0104125,38.1071992 C20.7400895,38.4570817 19.4353482,38.6344282 18.1326594,38.6344282 C14.516044,38.6344282 11.1345158,37.2842858 8.51966514,35.0045976 C8.78743392,35.0106909 9.05599213,35.0155014 9.32676068,35.0155014 C12.9489019,35.0155014 16.8329703,34.4653424 20.750194,33.3865112 C24.9705522,32.2242984 28.844674,30.5536174 32.1245259,28.4987391 C31.8218651,29.3867544 31.4358423,30.2524811 30.965668,31.0853362 C29.0016093,34.564278 25.8212233,37.0580327 22.0104125,38.1071992 L22.0104125,38.1071992 L22.0104125,38.1071992 Z M41.3576547,52.4313764 C41.1388295,53.4063011 40.1826928,54.0242879 39.2189779,53.8099006 C38.2551049,53.5956738 37.6404682,52.6290873 37.8422421,51.6503142 L41.9456094,35.1168422 C42.3497887,35.2387078 42.7598096,35.3463023 43.1751985,35.4385032 C43.5910612,35.5308645 44.007871,35.6060684 44.4249967,35.6670012 L41.3576547,52.4313764 L41.3576547,52.4313764 Z M54.8172992,31.0614441 C51.4933981,33.2256807 47.5382825,33.9454894 43.6812121,33.089063 C40.1375385,32.3017472 37.0450931,30.2487931 34.9146262,27.2889025 C35.0691932,26.564604 35.1776585,25.831807 35.2390748,25.0938788 C38.1243782,26.4643856 41.3617597,27.5669485 44.7102905,28.3108096 C48.0051412,29.0428048 51.2548376,29.4111275 54.3325998,29.4111275 C55.2442136,29.4111275 56.1397233,29.3771335 57.017866,29.3123523 C56.3462337,29.9567967 55.6120799,30.5439964 54.8172992,31.0614441 L54.8172992,31.0614441 L54.8172992,31.0614441 Z M61.2802209,21.6301702 C60.8894617,23.444845 60.1837268,25.1350886 59.2119597,26.6447787 C55.047334,27.2842524 50.1004004,27.0459731 45.216304,25.9610487 C41.6478429,25.168281 38.2194235,23.9515493 35.2577049,22.4301537 C35.1795531,21.3027366 34.9927779,20.1748386 34.6950115,19.0594478 C34.2368364,17.3430672 33.5309435,15.7455056 32.6265924,14.2986724 C33.0790837,12.6820292 33.7758193,11.2005606 34.6664348,9.8856951 C37.9890728,12.4025401 42.4899883,14.3764419 47.4726034,15.4834946 C50.2585987,16.1022831 53.013649,16.4119179 55.6093959,16.4119179 C57.6640793,16.4119179 59.616139,16.2145277 61.406527,15.8261614 C61.734449,17.7253403 61.6979782,19.6897815 61.2802209,21.6301702 L61.2802209,21.6301702 L61.2802209,21.6301702 Z" id="Shape"></path>
                </g>
            </g>
        </g>
    </g>
</svg>