<?xml version="1.0" encoding="UTF-8" standalone="no"?>
<svg width="66px" height="66px" viewBox="0 0 66 66" version="1.1" xmlns="http://www.w3.org/2000/svg" xmlns:xlink="http://www.w3.org/1999/xlink" xmlns:sketch="http://www.bohemiancoding.com/sketch/ns">
    <!-- Generator: Sketch 3.3.2 (12043) - http://www.bohemiancoding.com/sketch -->
    <title>latin-grey</title>
    <desc>Created with Sketch.</desc>
    <defs></defs>
    <g id="Page-1" stroke="none" stroke-width="1" fill="none" fill-rule="evenodd" sketch:type="MSPage">
        <g id="latin-grey" sketch:type="MSLayerGroup" transform="translate(0.000000, 1.000000)">
            <rect id="Rectangle-1" stroke="#979797" stroke-width="0.1" fill="#FFFFFF" sketch:type="MSShapeGroup" x="1" y="0" width="64" height="64" rx="8"></rect>
            <path d="M62.2351588,10.0218926 C59.7240864,6.10503644 55.8381777,3.40058253 51.2932327,2.4064159 C46.8767277,1.44063114 42.3229635,2.20934642 38.4699264,4.57145425 C35.2257363,6.56026854 32.7616462,9.50236034 31.3826409,12.9877161 C28.1538442,9.3958883 23.4891182,7.19509203 18.4357052,7.19509203 C16.9000384,7.19509203 15.3632493,7.40066003 13.8679906,7.80618381 C9.3774041,9.02355687 5.62971663,11.9169024 3.31539294,15.9530586 C1.00106926,19.9892147 0.39703286,24.6850485 1.61456627,29.1754746 C3.66832209,36.7497415 10.5772991,42.0398304 18.4159822,42.0398304 C18.7190427,42.0398304 19.0221031,42.029568 19.3250032,42.0135331 L23.3319758,58.8859838 C23.3348621,58.8983307 23.3380691,58.9105173 23.341276,58.9228642 C23.6371208,60.0142026 24.3402532,60.9249875 25.3211108,61.487333 C25.9706864,61.8598248 26.6904951,62.0499992 27.4197644,62.0499992 C27.7916148,62.0499992 28.1658705,62.0004513 28.5343535,61.9005535 C30.7866219,61.2897825 32.1223329,58.9602256 31.5118825,56.7079571 C31.5085152,56.6956102 31.5049875,56.6834237 31.5012995,56.6713975 L26.4377844,40.0888586 C29.3890161,38.567944 31.8452491,36.23053 33.5359737,33.2818638 C33.9493546,32.5609327 34.3070942,31.8186751 34.6107961,31.0607032 C36.2136493,32.8503635 38.1586881,34.2792375 40.3341492,35.2695557 L36.0959528,52.0833185 C36.0927458,52.0956654 36.0898595,52.107852 36.0872939,52.1203592 C35.5887674,54.4000474 37.0378455,56.660654 39.3178544,57.1596616 C39.6212355,57.2260462 39.9239753,57.2577954 40.2227063,57.2577954 C42.1682263,57.2577954 43.9251753,55.9054081 44.357317,53.9289407 C44.360043,53.9165938 44.3626086,53.9042469 44.3648535,53.8917397 L47.5323966,36.8457908 C47.5569301,36.8459512 47.5814635,36.8467529 47.6058366,36.8467529 C50.9003766,36.8465926 54.1318991,35.9069448 56.9720087,34.0861767 C60.8888648,31.5752646 63.5933187,27.6891955 64.587325,23.1440902 C65.5814916,18.5989849 64.746071,13.9389091 62.2351588,10.0218926 L62.2351588,10.0218926 L62.2351588,10.0218926 Z M50.7791524,4.75617682 C54.6966499,5.61292396 58.045869,7.94408434 60.2101056,11.3200818 C60.8561535,12.3278781 61.3724788,13.3929192 61.7574778,14.4951613 C58.0211752,15.2661215 53.354525,15.1456991 48.7279621,14.133894 C44.0348543,13.1073368 39.8208706,11.3043675 36.72789,9.01842569 C40.2278375,5.36710824 45.4818478,3.59813306 50.7791524,4.75617682 L50.7791524,4.75617682 L50.7791524,4.75617682 Z M14.4973622,10.1275629 C15.7875339,9.77768036 17.1125015,9.60033386 18.4357052,9.60033386 C22.3568907,9.60033386 26.006284,11.1388869 28.7259711,13.7047989 C25.7683254,16.1105217 21.5742251,18.1546566 17.0092364,19.3920733 C12.37642,20.648251 7.81014852,20.9957282 4.01291307,20.3987472 C4.34323295,19.2782252 4.80632218,18.18833 5.4020204,17.1492655 C7.39676763,13.6706444 10.6268471,11.1768897 14.4973622,10.1275629 L14.4973622,10.1275629 L14.4973622,10.1275629 Z M3.52096095,22.7568463 C4.87992258,22.9768458 6.32386942,23.0881283 7.82923011,23.0881283 C10.9262195,23.0881283 14.2752782,22.6253598 17.6384477,21.7136127 C22.64103,20.3573771 27.0948964,18.1665225 30.3384452,15.4899693 C31.503384,17.0075166 32.3930028,18.7614189 32.9155817,20.6888194 C33.4014405,22.4805642 33.5500845,24.3103118 33.3724173,26.1039808 C29.914802,28.6257967 25.3472477,30.7359955 20.4450442,32.0651322 C15.5534237,33.3917032 10.5463516,33.8791656 6.29212023,33.4516739 C5.23525697,32.0029166 4.42517152,30.3500344 3.93610568,28.5457823 C3.41625275,26.629446 3.28220061,24.6694946 3.52096095,22.7568463 L3.52096095,22.7568463 L3.52096095,22.7568463 Z M29.1946726,57.353043 C29.447704,58.3205916 28.8717288,59.3166824 27.9046612,59.5790141 C27.4335545,59.7066523 26.9411213,59.6433143 26.5176384,59.4005452 C26.098966,59.1603417 25.797509,58.7732581 25.6671449,58.3092068 L21.7271984,41.7188108 C22.1485968,41.6370325 22.5679106,41.5414643 22.9836968,41.4285783 C23.400926,41.3155319 23.811581,41.1878937 24.2153409,41.0461448 L29.1946726,57.353043 L29.1946726,57.353043 Z M22.3543252,39.1071992 C21.0641534,39.4570817 19.7390255,39.6344282 18.4159822,39.6344282 C14.7428572,39.6344282 11.3084926,38.2842858 8.65278491,36.0045976 C8.92473758,36.0106909 9.19749201,36.0155014 9.47249132,36.0155014 C13.1512285,36.0155014 17.0959855,35.4653424 21.0744158,34.3865112 C25.3607171,33.2242984 29.295372,31.5536174 32.6264716,29.4987391 C32.3190817,30.3867544 31.9270273,31.2524811 31.4495066,32.0853362 C29.4547594,35.564278 26.2246799,38.0580327 22.3543252,39.1071992 L22.3543252,39.1071992 L22.3543252,39.1071992 Z M42.0038681,53.4313764 C41.7816237,54.4063011 40.8105474,55.0242879 39.8317744,54.8099006 C38.8528409,54.5956738 38.2286005,53.6290873 38.4335271,52.6503142 L42.6010095,36.1168422 C43.0115041,36.2387078 43.4279316,36.3463023 43.849811,36.4385032 C44.2721715,36.5308645 44.695494,36.6060684 45.1191373,36.6670012 L42.0038681,53.4313764 L42.0038681,53.4313764 Z M55.6738195,32.0614441 C52.2979824,34.2256807 48.2810682,34.9454894 44.363731,34.089063 C40.7646875,33.3017472 37.6239227,31.2487931 35.4601672,28.2889025 C35.6171493,27.564604 35.7273094,26.831807 35.7896853,26.0938788 C38.7200716,27.4643856 42.0080372,28.5669485 45.4088888,29.3108096 C48.7552215,30.0428048 52.0556944,30.4111275 55.1815467,30.4111275 C56.1074044,30.4111275 57.0169065,30.3771335 57.9087702,30.3123523 C57.2266436,30.9567967 56.4810186,31.5439964 55.6738195,32.0614441 L55.6738195,32.0614441 L55.6738195,32.0614441 Z M62.2377244,22.6301702 C61.8408595,24.444845 61.1240975,26.1350886 60.1371466,27.6447787 C55.9074486,28.2842524 50.8832192,28.0459731 45.9228088,26.9610487 C42.2985904,26.168281 38.816602,24.9515493 35.8086065,23.4301537 C35.7292336,22.3027366 35.5395401,21.1748386 35.2371211,20.0594478 C34.771787,18.3430672 34.0548645,16.7455056 33.1363829,15.2986724 C33.5959444,13.6820292 34.3035665,12.2005606 35.2080978,10.8856951 C38.5826521,13.4025401 43.1538944,15.3764419 48.2143628,16.4834946 C51.0438893,17.1022831 53.8419873,17.4119179 56.4782927,17.4119179 C58.5650805,17.4119179 60.5476412,17.2145277 62.366004,16.8261614 C62.6990498,18.7253403 62.6620091,20.6897815 62.2377244,22.6301702 L62.2377244,22.6301702 L62.2377244,22.6301702 Z" id="Shape" fill="#888888" sketch:type="MSShapeGroup"></path>
        </g>
    </g>
</svg>