<?xml version="1.0" encoding="UTF-8" standalone="no"?>
<svg width="66px" height="66px" viewBox="0 0 66 66" version="1.1" xmlns="http://www.w3.org/2000/svg" xmlns:xlink="http://www.w3.org/1999/xlink" xmlns:sketch="http://www.bohemiancoding.com/sketch/ns">
    <!-- Generator: Sketch 3.3.2 (12043) - http://www.bohemiancoding.com/sketch -->
    <title>pop-grey</title>
    <desc>Created with Sketch.</desc>
    <defs></defs>
    <g id="Page-1" stroke="none" stroke-width="1" fill="none" fill-rule="evenodd" sketch:type="MSPage">
        <g id="pop-grey" sketch:type="MSLayerGroup" transform="translate(1.000000, 1.000000)">
            <rect id="Rectangle-1" stroke="#979797" stroke-width="0.1" fill="#FFFFFF" sketch:type="MSShapeGroup" x="0" y="0" width="64" height="64" rx="8"></rect>
            <path d="M42.4907449,0 C47.9259774,0 52.3305643,4.40559819 52.3305643,9.83981941 C52.3305643,15.2738962 47.9259774,19.6790609 42.4907449,19.6790609 C37.0573905,19.6790609 32.6516479,15.2738962 32.6516479,9.83981941 C32.6515034,4.40559819 37.057246,0 42.4907449,0 L42.4907449,0 L42.4907449,0 Z" id="Shape" fill="#888888" sketch:type="MSShapeGroup"></path>
            <path d="M21.1960813,37.0616343 C22.0168126,37.0616343 22.7450835,36.6916479 23.2450926,36.1179594 L39.8072235,20.8671783 C36.5199639,20.0695621 33.7906456,17.8386637 32.3202348,14.8753047 L19.2360632,32.2921174 C18.7538239,32.9654898 18.4680632,33.552614 18.4680632,34.332316 C18.4680632,35.8388442 19.6908533,37.0616343 21.1960813,37.0616343 L21.1960813,37.0616343 L21.1960813,37.0616343 Z" id="Shape" fill="#888888" sketch:type="MSShapeGroup"></path>
            <path d="M13.2355214,51.7211016 C18.739377,55.9503025 27.2000903,47.9394673 27.5161896,47.6337698 C27.6070609,47.554456 36.531088,39.6974808 40.691377,44.3509887 C41.5599278,45.319079 41.9228352,46.4398736 41.807693,47.7766501 C41.3700948,52.7331106 34.4868442,59.1570926 31.8703567,61.2136163 C31.2172099,61.7277833 31.1038014,62.6753589 31.617535,63.329228 C31.9145643,63.7077381 32.3546185,63.905228 32.8021851,63.905228 C33.1257968,63.905228 33.4557652,63.798754 33.7278014,63.5849391 C34.1557201,63.2491919 44.1657246,55.3181038 44.806158,48.0436298 C44.9988804,45.8611287 44.3697156,43.9434402 42.9371558,42.34214 C41.1031151,40.2909616 37.6358465,38.459088 31.5538239,41.3788172 C28.2240903,42.9743386 25.6201716,45.2894628 25.471079,45.4220858 C23.6818239,47.1346275 17.9293363,51.5272235 15.0689842,49.3305643 C14.4463205,48.8523702 14.126465,48.2740587 14.0592867,47.5109707 C13.8340587,44.8761354 16.6194312,41.0827991 18.0050384,39.4953679 L21.0911964,38.4192144 C21.0911964,38.4192144 20.4731558,38.3503025 19.0179142,37.0458871 C17.6571558,35.8230971 17.2961264,34.500912 17.2961264,34.500912 L15.9071964,37.3226907 C14.9180135,38.4255711 10.6922799,43.4182935 11.0599549,47.7645147 C11.1947449,49.3642257 11.9467088,50.73293 13.2355214,51.7211016 L13.2355214,51.7211016 L13.2355214,51.7211016 Z" id="Shape" fill="#888888" sketch:type="MSShapeGroup"></path>
        </g>
    </g>
</svg>