<?xml version="1.0" encoding="UTF-8" standalone="no"?>
<svg width="66px" height="66px" viewBox="0 0 66 66" version="1.1" xmlns="http://www.w3.org/2000/svg" xmlns:xlink="http://www.w3.org/1999/xlink" xmlns:sketch="http://www.bohemiancoding.com/sketch/ns">
    <!-- Generator: Sketch 3.3.2 (12043) - http://www.bohemiancoding.com/sketch -->
    <title>rock-grey</title>
    <desc>Created with Sketch.</desc>
    <defs></defs>
    <g id="Page-1" stroke="none" stroke-width="1" fill="none" fill-rule="evenodd" sketch:type="MSPage">
        <g id="rock-grey" sketch:type="MSLayerGroup" transform="translate(1.000000, 1.000000)">
            <rect id="Rectangle-1" stroke="#979797" stroke-width="0.1" fill="#FFFFFF" sketch:type="MSShapeGroup" x="0" y="0" width="64" height="64" rx="8"></rect>
            <path d="M46.3883755,52.9099429 L38.4768,52.9099429 C37.9358041,52.9099429 37.4972082,53.3485388 37.4972082,53.8895347 L37.4972082,54.3716245 C37.4972082,54.9126204 37.9358041,55.3512163 38.4768,55.3512163 L46.3883755,55.3512163 C46.9293714,55.3512163 47.3679673,54.9126204 47.3679673,54.3716245 L47.3679673,53.8895347 C47.3679673,53.3485388 46.9293714,52.9099429 46.3883755,52.9099429 L46.3883755,52.9099429 L46.3883755,52.9099429 Z" id="Shape" fill="#888888" sketch:type="MSShapeGroup"></path>
            <path d="M43.8954449,46.3096163 L43.8357551,46.2100898 C42.9229061,44.6884571 42.0612571,43.2505469 41.9574204,41.6313469 C41.9572898,41.623902 41.9578122,41.6167184 41.957551,41.6092735 C41.9054367,40.4141714 42.336849,39.2609959 42.7936,38.0400327 C43.098449,37.2252735 43.4137469,36.3825633 43.5986939,35.4861714 C43.8771592,34.1372082 43.8646204,32.9095837 43.5614694,31.8375184 C43.3588898,31.1212408 42.8210286,29.218351 41.067951,29.218351 C39.2596245,29.218351 38.8868571,30.9240163 38.7276408,31.6523102 C38.4589714,32.8817633 38.0732735,33.4339918 37.7971592,33.6807184 C37.3747592,34.0581878 36.625698,34.0708571 36.2172735,34.0443429 C35.5737469,34.0032 35.0983184,33.8481633 34.864,33.6083592 L34.864,12.6985143 C34.864,12.6934204 34.8633469,12.6884571 34.8632163,12.6833633 L34.8632163,11.5044571 C34.8807184,11.4185143 34.9469388,11.3650939 35.0021878,11.3445878 C35.3523592,11.2152816 35.5985633,10.8980245 35.6369633,10.5265633 L36.4083592,3.07291429 C36.4492408,2.67885714 36.2486204,2.29916735 35.9002776,2.11056327 L32.5014857,0.271020408 C32.3490612,0.179853061 32.1744327,0.130612245 31.9964082,0.130873469 C31.8183837,0.130612245 31.6437551,0.179853061 31.4913306,0.271020408 L28.0922776,2.11043265 C27.7439347,2.29903673 27.5433143,2.67885714 27.5841959,3.07278367 L28.3555918,10.5264327 C28.3939918,10.8978939 28.6401959,11.2150204 28.9903673,11.3444571 C29.0456163,11.3648327 29.1118367,11.4182531 29.1293388,11.5043265 L29.1293388,13.4972082 C29.1293388,13.534302 29.1318204,13.5707429 29.1358694,13.6067918 L29.1358694,30.3619918 C28.3233306,30.7124245 27.6382694,30.485551 27.4316408,30.3989551 C26.3297959,29.9369796 25.5701551,28.7327347 25.3997061,27.1779265 C25.3889959,27.0789224 25.3807673,26.952098 25.3720163,26.8175673 C25.3176816,25.9762939 25.1904653,24.0058776 23.3453061,23.9306449 C22.2539102,23.8862367 20.3536327,24.4707265 19.8788571,28.8724898 C19.5649959,31.7945469 20.3499755,34.2047347 21.1810612,36.7565061 C21.3187265,37.1790367 21.457698,37.6058776 21.5930122,38.039902 C21.9613388,39.2222041 22.1441959,40.1926531 22.168098,41.0944 C22.1728,41.2683755 22.171102,41.4418286 22.1635265,41.6100571 C22.1633959,41.6112327 22.1635265,41.6124082 22.1635265,41.6134531 C22.0646531,43.2397061 21.1996082,44.6825796 20.2834939,46.209698 L20.2236735,46.3096163 C19.0059755,48.3401143 17.6259265,50.641502 17.6187429,53.4465306 C17.6129959,55.6749061 18.5378612,58.1355102 19.9751184,59.7157878 C23.1960163,63.2566857 28.2921143,64 31.9999347,64 C35.7077551,64 40.8037225,63.2568163 44.024751,59.7157878 C45.4620082,58.1356408 46.3870041,55.6749061 46.3812571,53.4466612 C46.3742041,50.6740245 45.1493225,48.4004571 43.8954449,46.3096163 L43.8954449,46.3096163 L43.8954449,46.3096163 Z M32.9049469,13.6781061 L32.9049469,39.9041306 L31.0951837,39.9041306 L31.0951837,13.6781061 L32.9049469,13.6781061 L32.9049469,13.6781061 Z M31.9964082,2.22537143 L34.3924898,3.5220898 L33.739298,9.83275102 C33.2694857,10.2001633 32.9598041,10.7526531 32.9076898,11.362351 C32.9053388,11.3901714 32.9041633,11.4179918 32.9041633,11.4458122 L32.9041633,11.7189224 L31.0886531,11.7189224 L31.0886531,11.4458122 C31.0886531,11.4179918 31.0874776,11.3901714 31.0851265,11.362351 C31.0331429,10.7526531 30.7233306,10.2000327 30.2535184,9.83275102 L29.6003265,3.5220898 L31.9964082,2.22537143 L31.9964082,2.22537143 Z M42.5756082,58.3975184 C41.0636408,60.0596898 38.0015673,62.0409469 32.0000653,62.0409469 C25.9985633,62.0409469 22.9364898,60.0596898 21.4245225,58.3975184 C20.3154939,57.1782531 19.5734857,55.1907265 19.5780571,53.4517551 C19.5838041,51.1864163 20.7633633,49.2195265 21.904,47.3172898 L21.9636898,47.2177633 C22.9644408,45.5494531 23.9992816,43.8244571 24.1211429,41.7097143 C24.1216653,41.6997878 24.1210122,41.6901224 24.1212735,41.6800653 C24.1302857,41.4709551 24.1323755,41.2568816 24.1267592,41.0424163 C24.0978939,39.9555918 23.8872163,38.8162612 23.4636408,37.4571102 C23.3251918,37.0131592 23.182302,36.574302 23.0441143,36.1499429 C22.2467265,33.7013551 21.5580082,31.5866122 21.8269388,29.0821224 C21.9992163,27.4853878 22.503902,25.8878694 23.2455184,25.8878694 L23.2523102,25.8878694 C23.3616327,26.0860082 23.4000327,26.6806857 23.4170122,26.9438694 C23.4272,27.1004735 23.4367347,27.2484571 23.4522776,27.3909551 C23.7014857,29.6645224 24.9058612,31.4644898 26.6740898,32.2057143 C27.4448327,32.5291102 28.3075265,32.5924571 29.1361306,32.4094694 L29.1361306,40.8837224 C29.1361306,41.424849 29.5747265,41.8633143 30.1157225,41.8633143 L33.8846694,41.8633143 C34.4256653,41.8633143 34.8642612,41.424849 34.8642612,40.8837224 L34.8642612,35.790498 C35.231151,35.9006041 35.6404898,35.9708735 36.0922776,35.9998694 C37.3436735,36.0798041 38.3847837,35.7833143 39.1026286,35.1420082 C39.8284408,34.4935184 40.331951,33.4889796 40.6418939,32.0707918 C40.8370286,31.1777959 40.9441306,31.1777959 41.0680816,31.1777959 C41.1316898,31.1777959 41.3633959,31.2638694 41.6763429,32.3708082 C41.8930286,33.1372408 41.8943347,34.0523102 41.68,35.0902857 C41.5256163,35.838302 41.2502857,36.574302 40.9586286,37.3536653 C40.4629551,38.6783347 39.9522612,40.0478041 39.9982367,41.6030041 C39.9964082,41.6382694 39.9962776,41.6736653 39.9982367,41.7095837 C40.1198367,43.8244571 41.1546776,45.5495837 42.1555592,47.2180245 L42.2151184,47.3171592 C43.3748245,49.2510041 44.4163265,51.1753143 44.4220735,53.4517551 C44.4266449,55.1907265 43.6845061,57.1783837 42.5756082,58.3975184 L42.5756082,58.3975184 L42.5756082,58.3975184 Z" id="Shape" fill="#888888" sketch:type="MSShapeGroup"></path>
            <path d="M40.0660898,45.0494367 L44.7988245,45.0493061 C45.4547592,45.0493061 45.9883102,44.5156245 45.9883102,43.8596898 C45.9883102,43.2038857 45.4547592,42.6702041 44.7988245,42.6702041 L40.0660898,42.6702041 C39.4101551,42.6702041 38.8766041,43.2038857 38.8766041,43.8598204 C38.8766041,44.5157551 39.4102857,45.0494367 40.0660898,45.0494367 L40.0660898,45.0494367 L40.0660898,45.0494367 Z" id="Shape" fill="#888888" sketch:type="MSShapeGroup"></path>
            <path d="M40.0660898,48.4769633 L44.7988245,48.4768327 C45.4547592,48.4768327 45.9883102,47.943151 45.9883102,47.2872163 C45.9883102,46.6312816 45.4547592,46.0978612 44.7988245,46.0978612 L40.0660898,46.0978612 C39.4101551,46.0978612 38.8766041,46.6315429 38.8766041,47.2874776 C38.8766041,47.9432816 39.4102857,48.4769633 40.0660898,48.4769633 L40.0660898,48.4769633 L40.0660898,48.4769633 Z" id="Shape" fill="#888888" sketch:type="MSShapeGroup"></path>
        </g>
    </g>
</svg>